<svg id="visual" viewBox="0 0 1920 1080" width="1920" height="1080" xmlns="http://www.w3.org/2000/svg" xmlns:xlink="http://www.w3.org/1999/xlink" version="1.1"><rect x="0" y="0" width="1920" height="1080" fill="#fff"></rect><path d="M0 630L29.2 641.7C58.3 653.3 116.7 676.7 174.8 690C233 703.3 291 706.7 349.2 701.7C407.3 696.7 465.7 683.3 523.8 684.5C582 685.7 640 701.3 698.2 703C756.3 704.7 814.7 692.3 872.8 684.2C931 676 989 672 1047.2 677.5C1105.3 683 1163.7 698 1221.8 699.7C1280 701.3 1338 689.7 1396.2 672.5C1454.3 655.3 1512.7 632.7 1570.8 629C1629 625.3 1687 640.7 1745.2 650.5C1803.3 660.3 1861.7 664.7 1890.8 666.8L1920 669L1920 1081L1890.8 1081C1861.7 1081 1803.3 1081 1745.2 1081C1687 1081 1629 1081 1570.8 1081C1512.7 1081 1454.3 1081 1396.2 1081C1338 1081 1280 1081 1221.8 1081C1163.7 1081 1105.3 1081 1047.2 1081C989 1081 931 1081 872.8 1081C814.7 1081 756.3 1081 698.2 1081C640 1081 582 1081 523.8 1081C465.7 1081 407.3 1081 349.2 1081C291 1081 233 1081 174.8 1081C116.7 1081 58.3 1081 29.2 1081L0 1081Z" fill="#ffb2d5"></path><path d="M0 703L29.2 710.7C58.3 718.3 116.7 733.7 174.8 741.2C233 748.7 291 748.3 349.2 753C407.3 757.7 465.7 767.3 523.8 772C582 776.7 640 776.3 698.2 768.8C756.3 761.3 814.7 746.7 872.8 738.8C931 731 989 730 1047.2 733.5C1105.3 737 1163.7 745 1221.8 746.7C1280 748.3 1338 743.7 1396.2 740.7C1454.3 737.7 1512.7 736.3 1570.8 743C1629 749.7 1687 764.3 1745.2 759.2C1803.3 754 1861.7 729 1890.8 716.5L1920 704L1920 1081L1890.8 1081C1861.7 1081 1803.3 1081 1745.2 1081C1687 1081 1629 1081 1570.8 1081C1512.7 1081 1454.3 1081 1396.2 1081C1338 1081 1280 1081 1221.8 1081C1163.7 1081 1105.3 1081 1047.2 1081C989 1081 931 1081 872.8 1081C814.7 1081 756.3 1081 698.2 1081C640 1081 582 1081 523.8 1081C465.7 1081 407.3 1081 349.2 1081C291 1081 233 1081 174.8 1081C116.7 1081 58.3 1081 29.2 1081L0 1081Z" fill="#ffa1cb"></path><path d="M0 807L29.2 812.2C58.3 817.3 116.7 827.7 174.8 831.2C233 834.7 291 831.3 349.2 828C407.3 824.7 465.7 821.3 523.8 827.5C582 833.7 640 849.3 698.2 856.8C756.3 864.3 814.7 863.7 872.8 854C931 844.3 989 825.7 1047.2 828.2C1105.3 830.7 1163.7 854.3 1221.8 850.2C1280 846 1338 814 1396.2 798C1454.3 782 1512.7 782 1570.8 783.5C1629 785 1687 788 1745.2 795.3C1803.3 802.7 1861.7 814.3 1890.8 820.2L1920 826L1920 1081L1890.8 1081C1861.7 1081 1803.3 1081 1745.2 1081C1687 1081 1629 1081 1570.8 1081C1512.7 1081 1454.3 1081 1396.2 1081C1338 1081 1280 1081 1221.8 1081C1163.7 1081 1105.3 1081 1047.2 1081C989 1081 931 1081 872.8 1081C814.7 1081 756.3 1081 698.2 1081C640 1081 582 1081 523.8 1081C465.7 1081 407.3 1081 349.2 1081C291 1081 233 1081 174.8 1081C116.7 1081 58.3 1081 29.2 1081L0 1081Z" fill="#ff90c1"></path><path d="M0 953L29.2 941.2C58.3 929.3 116.7 905.7 174.8 904.2C233 902.7 291 923.3 349.2 930.2C407.3 937 465.7 930 523.8 930.7C582 931.3 640 939.7 698.2 935.5C756.3 931.3 814.7 914.7 872.8 903.5C931 892.3 989 886.7 1047.2 890.7C1105.3 894.7 1163.7 908.3 1221.8 915.2C1280 922 1338 922 1396.2 914.2C1454.3 906.3 1512.7 890.7 1570.8 894.3C1629 898 1687 921 1745.2 931.2C1803.3 941.3 1861.7 938.7 1890.8 937.3L1920 936L1920 1081L1890.8 1081C1861.7 1081 1803.3 1081 1745.2 1081C1687 1081 1629 1081 1570.8 1081C1512.7 1081 1454.3 1081 1396.2 1081C1338 1081 1280 1081 1221.8 1081C1163.7 1081 1105.3 1081 1047.2 1081C989 1081 931 1081 872.8 1081C814.7 1081 756.3 1081 698.2 1081C640 1081 582 1081 523.8 1081C465.7 1081 407.3 1081 349.2 1081C291 1081 233 1081 174.8 1081C116.7 1081 58.3 1081 29.2 1081L0 1081Z" fill="#ff7db7"></path><path d="M0 1029L29.2 1026.8C58.3 1024.7 116.7 1020.3 174.8 1009.2C233 998 291 980 349.2 974.7C407.3 969.3 465.7 976.7 523.8 979.5C582 982.3 640 980.7 698.2 976.2C756.3 971.7 814.7 964.3 872.8 972.5C931 980.7 989 1004.3 1047.2 1013.8C1105.3 1023.3 1163.7 1018.7 1221.8 1004.8C1280 991 1338 968 1396.2 962.5C1454.3 957 1512.7 969 1570.8 969.3C1629 969.7 1687 958.3 1745.2 962.8C1803.3 967.3 1861.7 987.7 1890.8 997.8L1920 1008L1920 1081L1890.8 1081C1861.7 1081 1803.3 1081 1745.2 1081C1687 1081 1629 1081 1570.8 1081C1512.7 1081 1454.3 1081 1396.2 1081C1338 1081 1280 1081 1221.8 1081C1163.7 1081 1105.3 1081 1047.2 1081C989 1081 931 1081 872.8 1081C814.7 1081 756.3 1081 698.2 1081C640 1081 582 1081 523.8 1081C465.7 1081 407.3 1081 349.2 1081C291 1081 233 1081 174.8 1081C116.7 1081 58.3 1081 29.2 1081L0 1081Z" fill="#ff69ac"></path></svg>